<svg id="svg" version="1.1" width="400" height="414.9397590361446" viewBox="0 0 400 414.9397590361446" xmlns="http://www.w3.org/2000/svg" xmlns:xlink="http://www.w3.org/1999/xlink" ><g id="svgg"><path id="path0" d="" stroke="none" fill="#000000" fill-rule="evenodd"></path><path id="path1" d="M279.693 383.600 C 279.693 384.370,279.775 384.685,279.876 384.300 C 279.976 383.915,279.976 383.285,279.876 382.900 C 279.775 382.515,279.693 382.830,279.693 383.600 " stroke="none" fill="#005555" fill-rule="evenodd"></path><path id="path2" d="M189.400 0.440 C 185.541 0.990,180.639 2.036,180.197 2.402 C 179.973 2.588,178.892 2.960,177.795 3.227 C 176.698 3.495,175.350 3.948,174.800 4.235 C 174.250 4.522,172.180 5.502,170.200 6.414 C 168.220 7.326,165.669 8.686,164.532 9.436 C 163.395 10.186,162.279 10.800,162.052 10.800 C 161.825 10.800,161.496 11.029,161.320 11.310 C 161.144 11.590,160.460 12.156,159.800 12.568 C 156.643 14.539,150.400 20.741,145.529 26.743 C 143.437 29.321,138.119 38.780,137.401 41.200 C 137.238 41.750,136.754 42.983,136.325 43.939 C 135.895 44.896,135.251 47.056,134.892 48.739 C 134.534 50.423,134.119 51.890,133.972 52.000 C 132.254 53.281,132.300 74.000,134.021 74.000 C 134.195 74.000,134.547 74.632,134.802 75.405 C 136.786 81.419,149.187 85.542,155.458 82.273 C 156.590 81.683,157.704 81.200,157.934 81.200 C 158.768 81.200,163.413 76.072,163.958 74.549 C 164.263 73.697,164.665 72.901,164.852 72.779 C 165.467 72.379,165.977 68.477,165.749 65.917 C 165.317 61.056,167.781 53.049,171.310 47.842 C 185.602 26.757,217.056 28.212,229.354 50.527 C 231.956 55.249,234.099 64.071,233.360 67.017 C 232.195 71.660,236.857 79.006,242.799 81.886 C 250.909 85.819,262.210 81.775,264.960 73.957 C 265.377 72.771,265.917 71.546,266.159 71.236 C 266.765 70.460,266.658 57.486,266.043 57.281 C 265.799 57.200,265.600 56.682,265.600 56.130 C 265.600 54.700,264.014 47.100,263.613 46.610 C 263.429 46.384,263.065 45.390,262.804 44.400 C 261.905 40.991,258.194 33.401,255.684 29.840 C 254.893 28.718,253.728 27.035,253.095 26.101 C 250.335 22.025,237.131 10.000,235.416 10.000 C 235.319 10.000,234.466 9.483,233.520 8.850 C 232.574 8.218,231.411 7.581,230.936 7.435 C 230.461 7.289,229.854 6.906,229.587 6.585 C 229.320 6.263,228.847 6.000,228.534 6.000 C 228.222 6.000,226.849 5.478,225.483 4.841 C 224.117 4.203,222.190 3.466,221.200 3.202 C 220.210 2.938,219.220 2.579,219.000 2.404 C 216.715 0.592,197.348 -0.694,189.400 0.440 M190.400 121.040 C 185.264 121.489,180.624 122.095,180.048 122.393 C 179.692 122.578,177.510 123.031,175.200 123.400 C 172.890 123.769,170.487 124.320,169.860 124.625 C 169.233 124.930,168.082 125.298,167.303 125.445 C 166.525 125.591,164.968 126.059,163.844 126.485 C 162.720 126.912,160.562 127.694,159.049 128.224 C 157.535 128.754,156.095 129.345,155.849 129.537 C 155.602 129.729,154.590 130.161,153.600 130.496 C 152.610 130.831,150.630 131.754,149.200 132.547 C 147.770 133.340,145.610 134.536,144.400 135.205 C 139.589 137.866,138.626 138.433,138.417 138.732 C 138.298 138.902,137.487 139.476,136.615 140.007 C 135.743 140.537,134.753 141.211,134.415 141.504 C 134.077 141.797,132.630 142.884,131.200 143.918 C 129.770 144.953,128.219 146.205,127.754 146.700 C 127.289 147.195,126.808 147.600,126.685 147.600 C 126.562 147.600,125.942 148.095,125.308 148.700 C 124.673 149.305,122.994 150.896,121.577 152.236 C 118.255 155.376,114.747 159.287,111.203 163.800 C 107.592 168.400,108.056 167.764,105.949 171.000 C 102.162 176.817,101.523 177.940,98.782 183.600 C 97.664 185.910,96.513 188.250,96.226 188.800 C 95.938 189.350,95.477 190.520,95.201 191.400 C 94.925 192.280,94.372 193.733,93.972 194.629 C 93.572 195.525,92.938 197.505,92.564 199.029 C 92.189 200.553,91.736 201.991,91.555 202.225 C 91.375 202.458,90.844 204.708,90.377 207.225 C 89.909 209.741,89.368 212.105,89.174 212.478 C 87.258 216.158,87.226 249.312,89.135 253.083 C 89.335 253.477,89.891 255.864,90.372 258.386 C 90.852 260.909,91.389 263.159,91.564 263.386 C 91.740 263.614,92.189 265.047,92.564 266.571 C 92.938 268.095,93.572 270.075,93.972 270.971 C 94.372 271.867,94.925 273.320,95.201 274.200 C 95.477 275.080,95.936 276.250,96.220 276.800 C 96.505 277.350,97.820 280.053,99.143 282.806 C 100.466 285.559,102.008 288.489,102.569 289.317 C 103.131 290.145,103.859 291.340,104.186 291.973 C 104.513 292.606,105.013 293.366,105.295 293.662 C 105.578 293.958,106.031 294.650,106.302 295.200 C 107.049 296.716,111.969 303.276,114.401 306.000 C 118.442 310.524,128.273 320.000,128.927 320.000 C 129.057 320.000,129.605 320.405,130.145 320.900 C 130.685 321.395,131.818 322.303,132.663 322.917 C 133.508 323.532,134.920 324.588,135.800 325.265 C 136.680 325.941,137.895 326.671,138.500 326.887 C 139.105 327.102,139.600 327.428,139.600 327.611 C 139.600 327.794,140.455 328.361,141.500 328.872 C 142.545 329.382,143.490 329.913,143.600 330.052 C 143.954 330.499,151.741 334.400,152.280 334.400 C 152.566 334.400,152.800 334.547,152.800 334.726 C 152.800 334.905,154.015 335.477,155.500 335.996 C 156.985 336.514,158.290 337.070,158.400 337.230 C 158.510 337.390,159.680 337.830,161.000 338.209 C 162.320 338.587,163.580 339.035,163.800 339.205 C 164.020 339.375,165.370 339.821,166.800 340.197 C 168.230 340.572,170.577 341.225,172.016 341.647 C 173.455 342.069,176.965 342.782,179.816 343.230 C 182.667 343.678,185.990 344.224,187.200 344.443 C 190.121 344.972,209.206 344.961,212.000 344.429 C 213.210 344.199,216.596 343.642,219.525 343.192 C 222.454 342.742,225.604 342.121,226.525 341.813 C 227.446 341.505,229.729 340.866,231.597 340.393 C 233.465 339.920,235.085 339.402,235.197 339.242 C 235.309 339.082,236.615 338.627,238.100 338.231 C 239.585 337.835,240.800 337.380,240.800 337.219 C 240.800 337.058,241.531 336.708,242.425 336.440 C 243.318 336.172,245.284 335.334,246.792 334.577 C 248.301 333.819,249.717 333.200,249.939 333.200 C 250.161 333.200,250.581 332.974,250.871 332.699 C 251.162 332.423,252.345 331.762,253.500 331.230 C 254.655 330.698,255.600 330.126,255.600 329.959 C 255.600 329.791,256.005 329.531,256.500 329.381 C 256.995 329.230,257.940 328.714,258.600 328.232 C 259.260 327.751,260.478 326.967,261.307 326.488 C 262.135 326.010,263.035 325.426,263.307 325.190 C 263.578 324.954,264.970 323.913,266.400 322.877 C 268.936 321.040,269.385 320.687,272.335 318.200 C 274.160 316.662,283.426 307.408,285.000 305.551 C 287.743 302.316,291.846 296.842,293.400 294.347 C 293.840 293.640,294.771 292.148,295.470 291.031 C 297.387 287.964,298.891 285.228,299.996 282.793 C 300.543 281.587,301.085 280.510,301.200 280.400 C 301.537 280.076,303.200 275.829,303.200 275.292 C 303.200 275.022,303.348 274.800,303.530 274.800 C 303.711 274.800,304.285 273.405,304.805 271.700 C 305.325 269.995,305.884 268.416,306.049 268.191 C 306.213 267.966,306.731 266.166,307.201 264.191 C 307.671 262.216,308.225 260.284,308.432 259.898 C 308.640 259.511,309.184 257.081,309.642 254.498 C 310.100 251.914,310.641 248.990,310.844 248.000 C 311.929 242.710,311.588 217.498,310.400 215.248 C 310.212 214.892,309.754 212.620,309.384 210.200 C 309.013 207.780,308.588 205.710,308.438 205.600 C 308.289 205.490,307.841 203.960,307.443 202.200 C 307.044 200.440,306.478 198.500,306.185 197.889 C 305.891 197.278,305.355 195.748,304.994 194.489 C 304.633 193.230,304.109 191.840,303.829 191.400 C 303.550 190.960,303.087 189.880,302.800 189.000 C 301.949 186.386,295.397 173.949,293.994 172.284 C 293.770 172.018,292.824 170.630,291.893 169.200 C 290.962 167.770,289.901 166.240,289.535 165.800 C 289.169 165.360,287.481 163.290,285.783 161.200 C 281.993 156.535,273.813 148.446,269.725 145.321 C 264.220 141.112,258.756 137.367,257.576 136.992 C 257.149 136.857,256.800 136.621,256.800 136.468 C 256.800 135.880,242.099 128.761,239.200 127.945 C 238.210 127.667,237.310 127.316,237.200 127.166 C 237.090 127.016,235.560 126.506,233.800 126.034 C 232.040 125.561,230.303 125.010,229.941 124.809 C 229.578 124.608,227.148 124.052,224.541 123.572 C 221.933 123.092,219.440 122.544,219.000 122.352 C 216.868 121.427,196.616 120.498,190.400 121.040 M211.731 154.826 C 260.927 162.740,290.773 213.374,273.725 260.000 C 258.201 302.455,209.618 323.360,168.164 305.423 C 158.945 301.434,150.888 295.957,143.644 288.757 C 120.738 265.986,114.044 231.333,126.808 201.600 C 128.788 196.988,131.603 191.969,134.549 187.800 C 152.375 162.569,181.777 150.008,211.731 154.826 M171.117 231.178 C 168.049 232.152,166.286 234.569,166.286 237.800 C 166.286 246.479,178.898 247.031,179.524 238.380 C 179.877 233.496,175.533 229.775,171.117 231.178 M198.000 231.091 C 195.291 231.583,192.804 234.755,192.801 237.720 C 192.796 245.004,202.459 247.261,205.820 240.760 C 207.607 237.306,205.377 232.283,201.573 231.192 C 200.168 230.789,199.727 230.777,198.000 231.091 M223.842 231.215 C 220.197 232.306,218.168 237.105,219.852 240.653 C 222.620 246.486,231.137 245.777,232.806 239.576 C 234.229 234.295,229.205 229.610,223.842 231.215 M25.900 296.061 C 25.075 296.291,24.400 296.642,24.400 296.840 C 24.400 297.038,24.165 297.200,23.878 297.200 C 22.204 297.200,14.345 304.723,12.243 308.338 C 11.999 308.757,11.134 310.101,10.321 311.325 C 9.507 312.550,8.448 314.327,7.967 315.276 C 7.486 316.224,6.970 317.090,6.821 317.200 C 6.672 317.310,6.122 318.570,5.600 320.000 C 5.078 321.430,4.545 322.690,4.416 322.800 C 3.884 323.255,1.574 330.926,0.915 334.429 C -0.628 342.635,0.156 361.968,2.221 366.600 C 2.515 367.260,3.047 368.832,3.404 370.093 C 3.761 371.354,4.201 372.477,4.382 372.589 C 4.563 372.701,4.836 373.287,4.987 373.891 C 5.564 376.191,9.683 383.805,11.375 385.700 C 11.719 386.085,12.000 386.515,12.000 386.656 C 12.000 388.147,23.429 399.697,27.400 402.219 C 28.060 402.639,28.690 403.094,28.800 403.231 C 30.093 404.843,44.033 411.592,46.091 411.602 C 46.371 411.604,47.097 411.864,47.704 412.181 C 53.270 415.085,81.308 415.267,85.000 412.423 C 85.220 412.254,86.300 411.896,87.400 411.628 C 91.774 410.560,102.602 405.201,105.237 402.800 C 105.599 402.470,106.960 401.443,108.261 400.518 C 111.377 398.302,116.678 392.827,117.018 391.472 C 117.166 390.883,117.424 390.400,117.591 390.400 C 118.252 390.400,118.999 386.412,118.981 382.978 C 118.954 377.764,117.193 374.208,112.523 369.939 C 112.125 369.576,111.080 368.968,110.200 368.588 C 109.320 368.209,108.088 367.631,107.462 367.304 C 105.371 366.212,99.063 366.474,96.200 367.771 C 93.243 369.110,90.800 370.748,90.800 371.392 C 90.800 371.657,89.901 372.633,88.802 373.560 C 70.533 388.964,42.248 381.287,34.618 358.853 C 30.420 346.511,33.743 332.325,42.807 323.890 C 44.212 322.582,45.517 320.911,46.040 319.749 C 46.522 318.677,47.116 317.368,47.359 316.839 C 47.936 315.582,47.929 308.794,47.348 307.561 C 47.099 307.032,46.566 305.790,46.162 304.800 C 43.373 297.959,33.834 293.845,25.900 296.061 M363.198 295.989 C 360.036 296.795,353.600 301.781,353.600 303.425 C 353.600 303.710,353.357 304.186,353.060 304.482 C 349.681 307.862,352.064 323.600,355.955 323.600 C 356.821 323.600,360.906 329.108,362.630 332.600 C 370.817 349.179,364.620 368.813,348.400 377.691 C 335.347 384.835,317.391 381.969,308.016 371.245 C 304.401 367.110,296.156 365.272,291.199 367.497 C 290.210 367.941,289.003 368.426,288.518 368.573 C 285.693 369.435,280.912 376.135,280.497 379.815 C 280.385 380.807,280.166 381.697,280.010 381.794 C 278.240 382.888,281.908 392.241,285.541 395.898 C 288.285 398.660,293.944 403.183,296.401 404.577 C 300.925 407.145,304.264 408.903,305.500 409.368 C 306.325 409.678,308.223 410.397,309.718 410.966 C 311.213 411.535,312.773 412.000,313.185 412.000 C 313.597 412.000,313.993 412.164,314.067 412.365 C 314.260 412.892,323.454 414.321,328.600 414.623 C 335.113 415.006,348.414 413.667,350.743 412.394 C 351.104 412.196,352.480 411.740,353.800 411.379 C 357.881 410.265,369.167 404.707,370.400 403.205 C 370.510 403.071,371.230 402.523,372.000 401.986 C 374.414 400.305,374.867 399.907,379.441 395.443 C 381.897 393.047,384.602 390.102,385.453 388.899 C 386.304 387.696,387.375 386.236,387.833 385.656 C 388.291 385.075,389.011 383.970,389.433 383.200 C 389.855 382.430,390.320 381.709,390.467 381.597 C 390.911 381.259,394.800 372.942,394.800 372.330 C 394.800 372.017,394.972 371.588,395.181 371.379 C 395.558 371.002,397.093 365.833,398.323 360.800 C 399.633 355.438,399.084 334.389,397.562 331.613 C 397.377 331.276,396.953 329.871,396.619 328.491 C 396.285 327.112,395.649 325.186,395.206 324.213 C 394.763 323.240,394.400 322.261,394.400 322.038 C 394.400 321.681,391.265 315.410,390.200 313.636 C 382.664 301.087,376.577 296.002,368.800 295.762 C 366.490 295.691,363.969 295.793,363.198 295.989 " stroke="none" fill="#0092aa" fill-rule="evenodd"></path><path id="path3" d="M193.800 33.176 C 178.692 35.666,164.790 51.484,165.681 65.171 L 165.800 67.000 199.378 67.102 C 217.845 67.159,233.106 67.054,233.289 66.871 C 233.847 66.313,232.844 59.264,231.747 56.034 C 226.400 40.285,210.130 30.484,193.800 33.176 M191.800 154.016 C 186.868 154.577,186.942 154.745,192.000 154.472 C 194.530 154.335,197.230 154.218,198.000 154.212 L 199.400 154.200 199.400 192.482 L 199.400 230.764 200.932 231.022 C 207.975 232.212,208.037 243.306,201.009 244.625 L 199.600 244.889 199.600 278.225 L 199.600 311.560 197.500 311.708 C 196.345 311.789,197.920 311.785,201.000 311.699 C 227.946 310.949,249.984 298.874,265.399 276.414 C 279.109 256.438,282.294 228.105,273.438 204.899 C 260.863 171.946,225.875 150.139,191.800 154.016 M179.000 156.414 C 177.460 156.835,176.035 157.184,175.833 157.189 C 175.632 157.195,175.566 157.299,175.687 157.420 C 175.899 157.632,182.425 156.107,182.767 155.766 C 183.103 155.431,181.732 155.667,179.000 156.414 M171.800 158.807 C 170.908 159.245,170.642 159.484,171.200 159.347 C 172.369 159.059,174.386 158.035,173.800 158.027 C 173.580 158.023,172.680 158.375,171.800 158.807 M166.053 161.053 C 165.313 161.376,164.801 161.734,164.916 161.849 C 165.031 161.964,165.816 161.693,166.662 161.247 C 168.435 160.311,168.041 160.186,166.053 161.053 M161.900 163.227 C 161.075 163.663,160.400 164.108,160.400 164.218 C 160.400 164.327,161.120 164.049,162.000 163.600 C 162.880 163.151,163.600 162.697,163.600 162.592 C 163.600 162.330,163.597 162.331,161.900 163.227 M155.375 167.237 C 147.325 172.724,139.822 180.131,134.445 187.900 C 132.576 190.601,133.977 189.053,136.618 185.500 C 140.561 180.194,147.761 173.158,153.200 169.293 C 159.056 165.132,159.447 164.839,159.175 164.818 C 159.051 164.808,157.341 165.897,155.375 167.237 M132.902 190.100 C 132.684 190.375,132.292 191.050,132.031 191.600 C 131.478 192.763,132.480 191.690,133.243 190.300 C 133.689 189.490,133.481 189.368,132.902 190.100 M130.228 194.661 C 129.656 195.684,129.252 196.585,129.329 196.663 C 129.407 196.740,129.961 195.903,130.560 194.802 C 131.160 193.701,131.564 192.800,131.459 192.800 C 131.354 192.800,130.800 193.637,130.228 194.661 M128.458 197.900 C 127.668 199.392,126.778 201.780,127.154 201.400 C 127.613 200.935,129.255 197.200,129.000 197.200 C 128.905 197.200,128.661 197.515,128.458 197.900 M125.385 204.985 C 125.000 205.993,124.780 206.914,124.897 207.031 C 125.014 207.148,125.400 206.393,125.754 205.354 C 126.591 202.898,126.295 202.602,125.385 204.985 M123.430 210.957 C 122.646 213.654,122.206 215.871,122.508 215.600 C 122.807 215.332,124.402 209.068,124.218 208.885 C 124.139 208.806,123.784 209.738,123.430 210.957 M120.935 222.669 C 120.462 226.522,120.608 241.841,121.138 244.000 L 121.580 245.800 121.378 243.600 C 120.820 237.511,120.734 229.783,121.174 225.260 C 121.683 220.023,121.502 218.052,120.935 222.669 M229.212 231.700 C 232.227 233.223,233.667 236.379,232.806 239.576 C 231.518 244.360,225.690 246.302,221.927 243.201 C 215.451 237.862,221.744 227.927,229.212 231.700 M168.306 232.436 L 167.000 233.672 168.600 232.552 C 169.480 231.936,170.275 231.380,170.367 231.316 C 170.458 231.252,170.326 231.200,170.073 231.200 C 169.820 231.200,169.025 231.756,168.306 232.436 M176.800 232.200 C 177.545 232.750,178.255 233.194,178.378 233.186 C 178.749 233.162,176.228 231.204,175.822 231.202 C 175.615 231.201,176.055 231.650,176.800 232.200 M195.319 231.984 C 194.110 232.721,192.516 235.049,192.934 235.467 C 193.040 235.573,193.244 235.292,193.387 234.841 C 193.530 234.391,194.389 233.387,195.295 232.611 C 197.163 231.013,197.169 230.856,195.319 231.984 M178.997 234.600 C 180.851 238.319,179.009 242.811,175.000 244.345 L 173.800 244.805 175.000 244.575 C 176.696 244.251,177.851 243.412,178.972 241.690 C 180.390 239.510,180.503 235.882,179.199 234.344 L 178.399 233.400 178.997 234.600 M166.461 234.700 C 165.434 236.662,165.667 240.700,166.851 241.431 C 167.109 241.591,167.082 241.327,166.783 240.768 C 166.153 239.592,166.138 236.037,166.757 234.880 C 167.016 234.396,167.138 234.000,167.028 234.000 C 166.918 234.000,166.663 234.315,166.461 234.700 M192.514 237.800 C 192.517 238.900,192.595 239.303,192.687 238.695 C 192.779 238.086,192.777 237.186,192.682 236.695 C 192.587 236.203,192.511 236.700,192.514 237.800 M192.801 240.120 C 192.794 241.748,196.380 244.825,198.235 244.782 C 198.656 244.773,198.313 244.520,197.474 244.220 C 195.692 243.585,194.576 242.670,193.544 241.000 C 193.137 240.340,192.802 239.944,192.801 240.120 M168.306 243.164 C 169.025 243.844,169.820 244.400,170.073 244.400 C 170.326 244.400,170.458 244.348,170.367 244.284 C 170.275 244.220,169.480 243.664,168.600 243.048 L 167.000 241.928 168.306 243.164 M122.400 250.606 C 122.400 251.331,124.107 257.226,124.270 257.064 C 124.473 256.860,122.971 250.837,122.632 250.499 C 122.504 250.371,122.400 250.419,122.400 250.606 M124.649 258.400 C 124.781 258.950,125.226 260.120,125.639 261.000 C 126.052 261.880,126.282 262.150,126.151 261.600 C 126.019 261.050,125.574 259.880,125.161 259.000 C 124.748 258.120,124.518 257.850,124.649 258.400 M127.200 264.970 C 127.200 265.419,130.710 272.133,131.413 273.028 C 131.746 273.453,131.004 271.820,129.764 269.400 C 127.444 264.872,127.200 264.451,127.200 264.970 M132.677 275.234 C 135.516 280.078,145.190 291.033,149.000 293.716 C 149.660 294.181,148.324 292.770,146.031 290.580 C 141.337 286.099,137.122 281.197,134.266 276.900 C 132.326 273.981,131.334 272.940,132.677 275.234 M150.940 295.103 C 151.096 295.356,151.791 295.967,152.484 296.460 C 153.177 296.954,153.617 297.150,153.460 296.897 C 153.304 296.644,152.609 296.033,151.916 295.540 C 151.223 295.046,150.783 294.850,150.940 295.103 M154.295 297.670 C 154.869 298.357,157.399 299.846,157.060 299.298 C 156.919 299.068,156.139 298.489,155.327 298.010 C 154.516 297.531,154.051 297.378,154.295 297.670 M158.200 300.211 C 158.640 300.569,159.540 301.126,160.200 301.450 C 161.322 302.001,161.348 301.997,160.600 301.389 C 160.160 301.031,159.260 300.474,158.600 300.150 C 157.478 299.599,157.452 299.603,158.200 300.211 M161.600 302.202 C 161.600 302.428,165.450 304.401,165.887 304.399 C 166.277 304.397,164.177 303.144,162.700 302.498 C 162.095 302.234,161.600 302.100,161.600 302.202 M167.600 305.200 C 168.370 305.622,169.180 305.966,169.400 305.966 C 169.620 305.966,169.170 305.622,168.400 305.200 C 167.630 304.778,166.820 304.434,166.600 304.434 C 166.380 304.434,166.830 304.778,167.600 305.200 M173.044 307.395 C 173.728 307.704,174.808 308.057,175.444 308.180 L 176.600 308.404 175.400 307.857 C 174.740 307.556,173.660 307.202,173.000 307.071 L 171.800 306.833 173.044 307.395 M179.656 309.389 C 179.860 309.593,185.366 310.800,186.093 310.800 C 187.145 310.800,185.965 310.403,183.191 309.825 C 180.032 309.166,179.348 309.081,179.656 309.389 M190.905 311.487 C 191.514 311.579,192.414 311.577,192.905 311.482 C 193.397 311.387,192.900 311.311,191.800 311.314 C 190.700 311.317,190.297 311.395,190.905 311.487 M41.529 325.100 C 33.446 333.559,30.654 347.197,34.618 358.853 C 42.248 381.287,70.533 388.964,88.802 373.560 C 91.268 371.480,91.267 371.462,88.698 368.951 C 87.544 367.824,86.125 366.384,85.544 365.751 C 83.600 363.634,43.332 323.600,43.146 323.600 C 43.045 323.600,42.317 324.275,41.529 325.100 M332.018 347.209 C 319.028 360.194,308.400 371.049,308.400 371.330 C 308.400 373.052,316.007 378.071,321.400 379.907 C 349.967 389.637,376.029 359.734,362.630 332.600 C 360.957 329.211,356.829 323.600,356.009 323.600 C 355.804 323.600,345.008 334.224,332.018 347.209 " stroke="none" fill="#2ee8ed" fill-rule="evenodd"></path><path id="path4" d="M192.800 154.426 C 125.655 159.688,96.457 242.825,145.254 289.807 C 156.950 301.068,169.019 307.042,187.633 310.785 C 188.641 310.988,191.746 311.281,194.533 311.435 L 199.600 311.717 199.600 278.258 L 199.600 244.800 198.535 244.800 C 191.044 244.800,190.331 233.189,197.689 231.017 L 199.400 230.512 199.400 192.356 L 199.400 154.200 198.200 154.148 C 197.540 154.120,195.110 154.244,192.800 154.426 M176.364 231.525 C 180.031 233.491,181.258 238.413,178.918 241.767 C 174.931 247.485,165.829 244.726,165.829 237.800 C 165.829 232.538,171.716 229.032,176.364 231.525 " stroke="none" fill="#71ffff" fill-rule="evenodd"></path></g></svg>